<?xml version="1.0" encoding="utf-8"?>
<!-- Generator: Adobe Illustrator 24.1.0, SVG Export Plug-In . SVG Version: 6.00 Build 0)  -->
<svg version="1.1" id="Layer_1" xmlns="http://www.w3.org/2000/svg" xmlns:xlink="http://www.w3.org/1999/xlink" x="0px" y="0px"
	 viewBox="0 0 352 352" style="enable-background:new 0 0 352 352;" xml:space="preserve">
<style type="text/css">
	.st0{fill:none;stroke:#000000;stroke-width:1.57;}
	.st1{fill:none;stroke:#000000;stroke-width:2.51;}
	.st2{font-family:'MyriadPro-Regular';}
	.st3{font-size:23.959px;}
</style>
<g>
	<path class="st0" d="M0,195.6h313 M148.7,407.9V31.4 M179.9,195.6c-0.1-8-3.2-15.8-8.7-21.6"/>
	<circle class="st1" cx="148" cy="195.6" r="124"/>
	<path class="st1" d="M148,195.6l66.2-105.9"/>
</g>
<path d="M155,38.4l-6.3-17.6l-6.3,17.6l6.3-7 M306,201.9l17.6-6.3l-17.6-6.3l7,6.3 M178.4,173.9l-13.2-4.7l7.2,12l-1.1-7"/>
<circle cx="214.2" cy="89.8" r="5.4"/>
<path d="M203.7,76.7c0-0.1,0-0.2-0.5-0.7c-3.9-3.9-4.8-9.9-4.8-14.7c0-5.4,1.2-10.9,4.9-14.8c0.4-0.4,0.4-0.4,0.4-0.5
	c0-0.2-0.1-0.4-0.3-0.4c-0.3,0-3.1,2.2-5,6.2c-1.6,3.4-1.9,6.9-1.9,9.6c0,2.4,0.3,6.2,2,9.8c1.9,3.8,4.6,5.9,4.9,5.9
	C203.6,77.1,203.7,77,203.7,76.7C203.7,76.7,203.7,76.7,203.7,76.7z M216.8,57.1c-1.3,0.1-1.5,1-1.5,1.4c0,0.8,0.6,1.5,1.5,1.5
	c0.8,0,1.4-0.6,1.4-1.6c0-2.1-2.3-3.4-4.7-3.4c-3.9,0-6.6,3.4-6.6,7.3c0,4,3,7.1,6.6,7.1c4.2,0,5.2-3.8,5.2-4.1
	c0-0.3-0.3-0.3-0.4-0.3c-0.3,0-0.3,0.1-0.4,0.3c-0.9,2.9-2.9,3.4-4.1,3.4c-1.7,0-4.3-1.4-4.3-6.6c0-5.1,2.5-6.6,4.1-6.6
	C213.8,55.8,215.7,55.8,216.8,57.1L216.8,57.1z M234.2,62.5c0-4-3.1-7.4-6.9-7.4c-3.9,0-6.9,3.4-6.9,7.4c0,4,3.2,7.1,6.9,7.1
	C231,69.6,234.2,66.5,234.2,62.5z M227.3,68.9c-1.4,0-2.7-0.7-3.6-2.2c-0.8-1.4-0.8-3.3-0.8-4.4c0-1.2,0-2.9,0.8-4.3
	c0.9-1.4,2.3-2.2,3.6-2.2c1.4,0,2.7,0.7,3.5,2.1c0.8,1.4,0.9,3.2,0.9,4.4c0,1.1-0.1,2.8-0.8,4.2C230.2,67.9,228.8,68.9,227.3,68.9
	C227.3,68.9,227.3,68.9,227.3,68.9z M242,63.1c0.7,0.1,3.2,0.6,3.2,2.9c0,1.6-1.1,2.9-3.5,2.9c-2.6,0-3.8-1.8-4.4-4.5
	c-0.1-0.4-0.1-0.5-0.4-0.5c-0.4,0-0.5,0.2-0.5,0.8v4.1c0,0.5,0.1,0.8,0.4,0.8c0.1,0,0.2,0,0.8-0.6c0.1-0.1,0.1-0.1,0.6-0.7
	c1.4,1.3,2.8,1.3,3.4,1.3c3.6,0,5.1-2.1,5.1-4.4c0-1.7-1-2.6-1.4-3c-1-1-2.2-1.3-3.6-1.5c-1.8-0.4-3.9-0.8-3.9-2.6
	c0-1.1,0.8-2.4,3.5-2.4c3.4,0,3.6,2.8,3.7,3.8c0,0.3,0.3,0.3,0.4,0.3c0.4,0,0.3-0.2,0.3-0.8v-3.2c0-0.5,0.1-0.8-0.2-0.8
	c-0.1,0-0.2,0-0.6,0.4c-0.1,0.1-0.4,0.4-0.5,0.5c-1.2-0.9-2.5-0.9-2.9-0.9c-3.8,0-5.1,2.1-5.1,3.9c0,1.1,0.5,2,1.4,2.7
	C238.9,62.5,239.7,62.7,242,63.1L242,63.1L242,63.1z M270.4,69.2c0-2.1-0.8-3.4-1.9-3.4c-1,0-1.7,0.8-1.7,1.8c0,0.8,0.6,1.7,1.7,1.7
	c0.4,0,0.8-0.1,1.1-0.4c0.1-0.1,0.1-0.1,0.2-0.1s0.1,0,0.1,0.5c0,2.3-1.1,4.2-2.1,5.2c-0.3,0.3-0.3,0.4-0.3,0.5
	c0,0.2,0.2,0.3,0.3,0.3C268,75.2,270.4,72.8,270.4,69.2L270.4,69.2L270.4,69.2z M284.5,63.1c0.7,0.1,3.2,0.6,3.2,2.9
	c0,1.6-1.1,2.9-3.5,2.9c-2.6,0-3.8-1.8-4.4-4.5c-0.1-0.4-0.1-0.5-0.4-0.5c-0.4,0-0.5,0.2-0.5,0.8v4.1c0,0.5,0.1,0.8,0.4,0.8
	c0.2,0,0.2,0,0.8-0.6c0.1-0.1,0.1-0.1,0.6-0.7c1.4,1.3,2.8,1.3,3.5,1.3c3.6,0,5.1-2.1,5.1-4.4c0-1.7-1-2.6-1.4-3
	c-1-1-2.3-1.3-3.6-1.5c-1.8-0.4-3.9-0.8-3.9-2.6c0-1.1,0.8-2.4,3.5-2.4c3.4,0,3.6,2.8,3.7,3.8c0,0.3,0.3,0.3,0.4,0.3
	c0.4,0,0.3-0.2,0.3-0.8v-3.2c0-0.5,0.1-0.8-0.2-0.8c-0.2,0-0.2,0-0.6,0.4c-0.1,0.1-0.4,0.4-0.5,0.5c-1.2-0.9-2.5-0.9-2.9-0.9
	c-3.8,0-5.1,2.1-5.1,3.9c0,1.1,0.5,2,1.4,2.7C281.3,62.5,282.2,62.7,284.5,63.1L284.5,63.1L284.5,63.1z M296.2,55.4l-4.5,0.4v0.9
	c2,0,2.3,0.2,2.3,1.8v8.4c0,1.4-0.4,1.4-2.4,1.4v0.9c1,0,2.7-0.1,3.5-0.1c1.1,0,2.2,0.1,3.3,0.1v-0.9c-2.1,0-2.1-0.2-2.1-1.4V55.4
	L296.2,55.4z M296.2,49.9c0-1-0.8-1.5-1.7-1.5c-1,0-1.8,0.7-1.8,1.5c0,0.8,0.8,2,1.8,2C295.4,51.9,296.2,51.1,296.2,49.9z
	 M302.5,58.4v8.4c0,1.4-0.3,1.4-2.5,1.4v0.9c1.1,0,2.7-0.1,3.5-0.1c0.8,0,2.4,0.1,3.5,0.1v-0.9c-2.1,0-2.4,0-2.4-1.4v-5.8
	c0-3.3,2.2-5.1,4.2-5.1c2,0,2.4,1.7,2.4,3.6v7.3c0,1.4-0.4,1.4-2.6,1.4v0.9c1.1,0,2.7-0.1,3.5-0.1c0.8,0,2.4,0.1,3.5,0.1v-0.9
	c-1.6,0-2.4,0-2.4-1l0.1-6c0-2.7-0.1-3.7-1.1-4.8c-0.4-0.5-1.5-1.2-3.3-1.2c-2.3,0-3.8,1.4-4.7,3.3v-3.3l-4.4,0.4v0.9
	C302.2,56.6,302.5,56.8,302.5,58.4L302.5,58.4L302.5,58.4z M342.1,61.4c0-2.4-0.4-6.2-2.1-9.8c-1.9-3.9-4.6-6-4.9-6
	c-0.2,0-0.3,0.2-0.3,0.4c0,0.1,0,0.2,0.6,0.7c3.1,3.1,4.9,8.1,4.9,14.6c0,5.4-1.2,10.9-5.1,14.8c-0.4,0.4-0.4,0.4-0.4,0.5
	c0,0.2,0.1,0.3,0.3,0.3c0.3,0,3.1-2.1,5-6.1C341.7,67.5,342.1,64,342.1,61.4L342.1,61.4L342.1,61.4z M180.9,28.6
	c0.1-0.4,0.1-0.5,0.1-0.7c0-0.6-0.4-0.9-0.9-0.9c-0.3,0-0.8,0.2-1.1,0.7c-0.1,0.2-0.3,1.1-0.4,1.7c-0.2,0.8-0.4,1.7-0.6,2.5
	l-1.4,5.6c-0.1,0.5-1.5,2.7-3.5,2.7c-1.6,0-2-1.4-2-2.6c0-1.4,0.6-3.4,1.6-6.1c0.5-1.3,0.6-1.6,0.6-2.2c0-1.4-1-2.6-2.5-2.6
	c-3,0-4.1,4.6-4.1,4.8c0,0.3,0.3,0.3,0.4,0.3c0.3,0,0.3-0.1,0.5-0.6c0.8-2.9,2.1-4,3.2-4c0.3,0,0.7,0.1,0.7,1.1
	c0,0.8-0.3,1.6-0.4,2.2c-1.3,3.3-1.8,5.1-1.8,6.6c0,2.8,1.9,3.7,3.8,3.7c1.2,0,2.3-0.5,3.2-1.4c-0.4,1.6-0.8,3.2-2,4.8
	c-0.8,1.1-2,1.9-3.4,1.9c-0.4,0-1.9-0.1-2.4-1.3c0.5,0,0.9,0,1.3-0.4c0.3-0.3,0.6-0.7,0.6-1.3c0-1-0.8-1.2-1.1-1.2
	c-0.7,0-1.8,0.5-1.8,2.1c0,1.6,1.4,2.6,3.3,2.6c3.2,0,6.4-2.8,7.3-6.3L180.9,28.6z M304.1,214.9c0.2-0.8,0.9-3.8,3.1-3.8
	c0.1,0,0.9,0.1,1.6,0.5c-0.9,0.2-1.6,0.9-1.6,1.7c0,0.5,0.4,1,1.3,1c0.7,0,1.5-0.5,1.5-1.7c0-1.6-1.8-2.1-2.8-2.1
	c-1.8,0-2.9,1.7-3.3,2.4c-0.8-2.1-2.5-2.4-3.4-2.4c-3.3,0-5,4.1-5,4.9c0,0.3,0.3,0.3,0.3,0.3c0.2,0,0.3-0.1,0.4-0.3
	c1.1-3.3,3.1-4.2,4.2-4.2c0.6,0,1.7,0.3,1.7,2.2c0,1-0.5,3.1-1.7,7.5c-0.5,1.9-1.6,3.3-3,3.3c-0.2,0-0.9-0.1-1.6-0.5
	c0.8-0.1,1.5-0.8,1.5-1.7c0-0.8-0.7-1-1.1-1c-0.9,0-1.7,0.8-1.7,1.7c0,1.4,1.6,2.1,2.9,2.1c2.1,0,3.2-2.2,3.3-2.4
	c0.4,1.2,1.5,2.4,3.4,2.4c3.2,0,4.8-4,4.8-4.8c0-0.3-0.2-0.3-0.2-0.3c-0.3,0-0.4,0.1-0.4,0.4c-1,3.3-3.2,4.2-4.2,4.2
	c-1.2,0-1.7-1-1.7-2.1c0-0.7,0.2-1.4,0.5-2.8C303.1,219.2,304.1,214.9,304.1,214.9z M166.2,117.4c0-0.8,0.1-0.7-0.6-0.7
	c-1.9,1.9-4.7,1.9-5.7,1.9v0.9c0.6,0,2.5,0,4.1-0.8V135c0,1.1-0.1,1.5-2.9,1.5h-1v0.9c1.1-0.1,3.8-0.1,5.1-0.1c1.2,0,4,0,5.1,0.1
	v-0.9h-1c-2.8,0-3-0.4-3-1.5C166.2,135,166.2,117.4,166.2,117.4z"/>
<text transform="matrix(1.0006 0 0 1 187 182.0107)" class="st2 st3">θ</text>
<text transform="matrix(1.0006 0 0 1 250.0732 69.0317)" class="st2 st3">θ</text>
<text transform="matrix(1.0006 0 0 1 317.1023 69.1289)" class="st2 st3">θ</text>
</svg>
