<?xml version="1.0" standalone="no"?><!DOCTYPE svg PUBLIC "-//W3C//DTD SVG 1.1//EN" "http://www.w3.org/Graphics/SVG/1.1/DTD/svg11.dtd"><svg xmlns="http://www.w3.org/2000/svg" viewBox="0 0 650 400" version="1.1"><clipPath id="box"><rect x="0" y="0" width="650" height="400" style="fill:none;stroke:none;" /></clipPath><g clip-path="url(#box)"><rect x="0.00" y="0.00" width="650.00" height="400.00" style="fill:#FFFFFF;stroke:none;" /><path d="M0.00 400.00 L650.00 400.00 M0.00 350.00 L650.00 350.00 M0.00 300.00 L650.00 300.00 M0.00 250.00 L650.00 250.00 M0.00 200.00 L650.00 200.00 M0.00 150.00 L650.00 150.00 M0.00 100.00 L650.00 100.00 M0.00 50.00 L650.00 50.00 M0.00 0.00 L650.00 0.00 M0.00 0.00 L0.00 400.00 M65.00 0.00 L65.00 400.00 M130.00 0.00 L130.00 400.00 M195.00 0.00 L195.00 400.00 M260.00 0.00 L260.00 400.00 M325.00 0.00 L325.00 400.00 M390.00 0.00 L390.00 400.00 M454.00 0.00 L454.00 400.00 M520.00 0.00 L520.00 400.00 M585.00 0.00 L585.00 400.00 M650.00 0.00 L650.00 400.00 " style="fill:none;stroke:#D0D0D0;stroke-width:1;" /><path d="M0.00 0.00 L0.00 400.00 " style="fill:none;stroke:#000000;stroke-width:1;" /><path d="M-6.50 400.00 L6.50 400.00 M-6.50 350.00 L6.50 350.00 M-6.50 300.00 L6.50 300.00 M-6.50 250.00 L6.50 250.00 M-6.50 200.00 L6.50 200.00 M-6.50 150.00 L6.50 150.00 M-6.50 100.00 L6.50 100.00 M-6.50 50.00 L6.50 50.00 M-6.50 0.00 L6.50 0.00 " style="fill:none;stroke:#000000;stroke-width:1;" /><path d="M0.00 200.00 L650.00 200.00 " style="fill:none;stroke:#000000;stroke-width:1;" /><path d="M0.00 193.50 L0.00 206.50 M65.00 193.50 L65.00 206.50 M130.00 193.50 L130.00 206.50 M195.00 193.50 L195.00 206.50 M260.00 193.50 L260.00 206.50 M325.00 193.50 L325.00 206.50 M390.00 193.50 L390.00 206.50 M455.00 193.50 L455.00 206.50 M520.00 193.50 L520.00 206.50 M585.00 193.50 L585.00 206.50 M650.00 193.50 L650.00 206.50 " style="fill:none;stroke:#000000;stroke-width:1;" /><path d="M-10.00 200.00 L-0.25 200.77 L0.75 197.69 L1.08 196.69 L1.40 195.69 L1.73 194.69 L2.05 193.69 L2.38 192.69 L2.70 191.69 L3.03 190.70 L3.35 189.70 L3.68 188.70 L4.01 187.70 L4.34 186.70 L4.66 185.70 L4.99 184.70 L5.32 183.70 L5.65 182.71 L5.98 181.71 L6.31 180.71 L6.64 179.71 L6.97 178.71 L7.30 177.72 L7.64 176.72 L7.97 175.72 L8.31 174.72 L8.64 173.73 L8.98 172.73 L9.31 171.73 L9.65 170.73 L9.99 169.74 L10.33 168.74 L10.67 167.74 L11.02 166.75 L11.36 165.75 L11.71 164.76 L12.05 163.76 L12.40 162.76 L12.75 161.77 L13.10 160.77 L13.45 159.78 L13.81 158.78 L14.16 157.79 L14.52 156.79 L14.88 155.80 L15.24 154.80 L15.60 153.81 L15.97 152.81 L16.34 151.82 L16.71 150.83 L17.08 149.83 L17.45 148.84 L17.83 147.85 L18.21 146.85 L18.59 145.86 L18.98 144.87 L19.37 143.88 L19.76 142.88 L20.15 141.89 L20.55 140.90 L20.95 139.91 L21.35 138.92 L21.76 137.93 L22.18 136.94 L22.59 135.95 L23.01 134.96 L23.44 133.97 L23.87 132.98 L24.30 131.99 L24.75 131.01 L25.19 130.02 L25.64 129.03 L26.10 128.05 L26.57 127.06 L27.04 126.08 L27.52 125.09 L28.00 124.11 L28.50 123.13 L29.00 122.15 L29.51 121.17 L30.04 120.19 L30.57 119.21 L31.12 118.23 L31.67 117.25 L32.25 116.28 L32.83 115.31 L33.43 114.33 L34.06 113.36 L34.70 112.40 L35.36 111.43 L36.04 110.47 L36.76 109.51 L37.50 108.56 L38.29 107.61 L39.11 106.67 L39.99 105.74 L40.93 104.81 L41.94 103.90 L43.06 103.01 L44.31 102.15 L45.75 101.33 L47.52 100.59 L49.52 100.11 L51.52 100.01 L53.52 100.29 L55.52 100.94 L57.52 101.97 L59.46 103.33 L60.89 104.55 L62.06 105.69 L63.09 106.79 L64.03 107.87 L64.90 108.94 L65.71 110.00 L66.47 111.05 L67.20 112.09 L67.90 113.13 L68.56 114.17 L69.21 115.21 L69.83 116.24 L70.44 117.27 L71.02 118.29 L71.59 119.32 L72.15 120.34 L72.69 121.37 L73.23 122.39 L73.75 123.41 L74.26 124.43 L74.76 125.45 L75.25 126.46 L75.73 127.48 L76.21 128.49 L76.68 129.51 L77.14 130.52 L77.59 131.54 L78.04 132.55 L78.49 133.56 L78.92 134.58 L79.36 135.59 L79.78 136.60 L80.21 137.61 L80.62 138.62 L81.04 139.63 L81.45 140.64 L81.85 141.65 L82.25 142.66 L82.65 143.67 L83.05 144.67 L83.44 145.68 L83.83 146.69 L84.21 147.70 L84.60 148.71 L84.98 149.71 L85.35 150.72 L85.73 151.73 L86.10 152.73 L86.47 153.74 L86.84 154.74 L87.20 155.75 L87.57 156.76 L87.93 157.76 L88.29 158.77 L88.65 159.77 L89.00 160.78 L89.36 161.78 L89.71 162.79 L90.06 163.79 L90.41 164.79 L90.76 165.80 L91.10 166.80 L91.45 167.81 L91.79 168.81 L92.14 169.81 L92.48 170.82 L92.82 171.82 L93.16 172.82 L93.49 173.83 L93.83 174.83 L94.17 175.83 L94.50 176.83 L94.84 177.84 L95.17 178.84 L95.50 179.84 L95.84 180.84 L96.17 181.84 L96.50 182.85 L96.83 183.85 L97.16 184.85 L97.49 185.85 L97.82 186.85 L98.14 187.85 L98.47 188.86 L98.80 189.86 L99.13 190.86 L99.45 191.86 L99.78 192.86 L100.10 193.86 L100.43 194.86 L100.76 195.86 L101.08 196.86 L101.41 197.86 L101.73 198.86 L102.06 199.86 L102.38 200.86 L102.71 201.86 L103.03 202.86 L103.36 203.86 L103.68 204.86 L104.01 205.86 L104.33 206.86 L104.66 207.86 L104.98 208.86 L105.31 209.86 L105.64 210.86 L105.96 211.86 L106.29 212.85 L106.62 213.85 L106.95 214.85 L107.27 215.85 L107.60 216.85 L107.93 217.85 L108.26 218.84 L108.59 219.84 L108.93 220.84 L109.26 221.84 L109.59 222.84 L109.92 223.83 L110.26 224.83 L110.59 225.83 L110.93 226.83 L111.27 227.82 L111.60 228.82 L111.94 229.82 L112.28 230.81 L112.62 231.81 L112.97 232.81 L113.31 233.80 L113.65 234.80 L114.00 235.80 L114.35 236.79 L114.70 237.79 L115.05 238.78 L115.40 239.78 L115.75 240.77 L116.11 241.77 L116.46 242.76 L116.82 243.76 L117.18 244.75 L117.54 245.75 L117.91 246.74 L118.28 247.74 L118.64 248.73 L119.02 249.72 L119.39 250.72 L119.76 251.71 L120.14 252.70 L120.52 253.70 L120.91 254.69 L121.29 255.68 L121.68 256.67 L122.08 257.66 L122.47 258.66 L122.87 259.65 L123.28 260.64 L123.68 261.63 L124.09 262.62 L124.51 263.61 L124.93 264.60 L125.35 265.59 L125.78 266.58 L126.21 267.56 L126.65 268.55 L127.09 269.54 L127.54 270.53 L128.00 271.51 L128.46 272.50 L128.93 273.48 L129.40 274.47 L129.89 275.45 L130.38 276.43 L130.88 277.42 L131.39 278.40 L131.90 279.38 L132.43 280.36 L132.97 281.33 L133.53 282.31 L134.09 283.29 L134.67 284.26 L135.27 285.23 L135.88 286.20 L136.51 287.17 L137.16 288.14 L137.84 289.10 L138.54 290.06 L139.27 291.01 L140.03 291.96 L140.84 292.91 L141.69 293.85 L142.60 294.78 L143.58 295.69 L144.65 296.59 L145.83 297.47 L147.18 298.31 L148.78 299.10 L150.78 299.73 L152.78 299.99 L154.78 299.87 L156.78 299.38 L158.78 298.51 L160.78 297.26 L162.38 295.99 L163.65 294.83 L164.74 293.71 L165.71 292.62 L166.61 291.55 L167.44 290.49 L168.23 289.43 L168.97 288.38 L169.68 287.34 L170.36 286.30 L171.02 285.27 L171.65 284.23 L172.26 283.20 L172.86 282.18 L173.44 281.15 L174.00 280.12 L174.55 279.10 L175.09 278.08 L175.61 277.06 L176.13 276.04 L176.63 275.02 L177.13 274.00 L177.61 272.99 L178.09 271.97 L178.57 270.95 L179.03 269.94 L179.49 268.93 L179.94 267.91 L180.39 266.90 L180.83 265.89 L181.26 264.88 L181.69 263.86 L182.11 262.85 L182.53 261.84 L182.95 260.83 L183.36 259.82 L183.77 258.81 L184.17 257.80 L184.57 256.80 L184.97 255.79 L185.36 254.78 L185.75 253.77 L186.14 252.76 L186.52 251.76 L186.90 250.75 L187.28 249.74 L187.66 248.73 L188.03 247.73 L188.40 246.72 L188.77 245.72 L189.14 244.71 L189.50 243.70 L189.87 242.70 L190.23 241.69 L190.58 240.69 L190.94 239.68 L191.30 238.68 L191.65 237.67 L192.00 236.67 L192.35 235.67 L192.70 234.66 L193.05 233.66 L193.39 232.65 L193.74 231.65 L194.08 230.65 L194.42 229.64 L194.76 228.64 L195.10 227.64 L195.44 226.63 L195.78 225.63 L196.12 224.63 L196.45 223.63 L196.79 222.62 L197.12 221.62 L197.45 220.62 L197.79 219.62 L198.12 218.61 L198.45 217.61 L198.78 216.61 L199.11 215.61 L199.44 214.61 L199.77 213.61 L200.10 212.60 L200.42 211.60 L200.75 210.60 L201.08 209.60 L201.41 208.60 L201.73 207.60 L202.06 206.60 L202.38 205.60 L202.71 204.60 L203.03 203.60 L203.36 202.60 L203.68 201.60 L204.01 200.60 L204.33 199.60 L204.66 198.60 L204.98 197.60 L205.31 196.60 L205.64 195.60 L205.96 194.60 L206.29 193.60 L206.61 192.60 L206.94 191.60 L207.26 190.60 L207.59 189.60 L207.92 188.60 L208.24 187.60 L208.57 186.60 L208.90 185.61 L209.23 184.61 L209.55 183.61 L209.88 182.61 L210.21 181.61 L210.54 180.61 L210.88 179.62 L211.21 178.62 L211.54 177.62 L211.87 176.62 L212.21 175.63 L212.54 174.63 L212.88 173.63 L213.21 172.63 L213.55 171.64 L213.89 170.64 L214.23 169.64 L214.57 168.65 L214.91 167.65 L215.25 166.65 L215.60 165.66 L215.94 164.66 L216.29 163.66 L216.64 162.67 L216.99 161.67 L217.34 160.68 L217.69 159.68 L218.04 158.69 L218.40 157.69 L218.76 156.70 L219.12 155.70 L219.48 154.71 L219.84 153.71 L220.21 152.72 L220.58 151.73 L220.95 150.73 L221.32 149.74 L221.69 148.74 L222.07 147.75 L222.45 146.76 L222.83 145.77 L223.22 144.77 L223.61 143.78 L224.00 142.79 L224.39 141.80 L224.79 140.81 L225.19 139.82 L225.60 138.82 L226.01 137.83 L226.42 136.84 L226.84 135.85 L227.26 134.87 L227.68 133.88 L228.11 132.89 L228.55 131.90 L228.99 130.91 L229.44 129.93 L229.89 128.94 L230.35 127.95 L230.81 126.97 L231.29 125.98 L231.77 125.00 L232.25 124.02 L232.75 123.03 L233.25 122.05 L233.77 121.07 L234.29 120.09 L234.83 119.11 L235.37 118.14 L235.93 117.16 L236.50 116.18 L237.09 115.21 L237.70 114.24 L238.32 113.27 L238.96 112.31 L239.63 111.34 L240.31 110.38 L241.03 109.42 L241.78 108.47 L242.57 107.52 L243.40 106.58 L244.28 105.65 L245.22 104.73 L246.25 103.82 L247.37 102.93 L248.64 102.07 L250.11 101.25 L251.91 100.53 L253.91 100.09 L255.91 100.02 L257.91 100.33 L259.91 101.03 L261.91 102.09 L263.79 103.43 L265.19 104.64 L266.35 105.77 L267.37 106.87 L268.30 107.95 L269.16 109.02 L269.97 110.08 L270.73 111.13 L271.46 112.17 L272.15 113.22 L272.82 114.25 L273.46 115.29 L274.08 116.32 L274.69 117.35 L275.27 118.37 L275.84 119.40 L276.40 120.42 L276.94 121.45 L277.47 122.47 L277.99 123.49 L278.50 124.51 L279.00 125.52 L279.49 126.54 L279.97 127.56 L280.45 128.57 L280.92 129.59 L281.38 130.60 L281.83 131.62 L282.28 132.63 L282.72 133.64 L283.16 134.65 L283.59 135.67 L284.02 136.68 L284.44 137.69 L284.86 138.70 L285.27 139.71 L285.68 140.72 L286.09 141.73 L286.49 142.74 L286.89 143.74 L287.28 144.75 L287.67 145.76 L288.06 146.77 L288.45 147.78 L288.83 148.78 L289.21 149.79 L289.59 150.80 L289.96 151.80 L290.33 152.81 L290.70 153.82 L291.07 154.82 L291.44 155.83 L291.80 156.83 L292.16 157.84 L292.52 158.84 L292.88 159.85 L293.23 160.85 L293.59 161.86 L293.94 162.86 L294.29 163.87 L294.64 164.87 L294.99 165.88 L295.33 166.88 L295.68 167.88 L296.02 168.89 L296.37 169.89 L296.71 170.89 L297.05 171.90 L297.39 172.90 L297.72 173.90 L298.06 174.91 L298.40 175.91 L298.73 176.91 L299.07 177.91 L299.40 178.92 L299.73 179.92 L300.07 180.92 L300.40 181.92 L300.73 182.92 L301.06 183.93 L301.39 184.93 L301.72 185.93 L302.05 186.93 L302.37 187.93 L302.70 188.93 L303.03 189.93 L303.36 190.94 L303.68 191.94 L304.01 192.94 L304.33 193.94 L304.66 194.94 L304.98 195.94 L305.31 196.94 L305.64 197.94 L305.96 198.94 L306.29 199.94 L306.61 200.94 L306.94 201.94 L307.26 202.94 L307.59 203.94 L307.91 204.94 L308.24 205.94 L308.56 206.94 L308.89 207.94 L309.21 208.94 L309.54 209.94 L309.87 210.93 L310.19 211.93 L310.52 212.93 L310.85 213.93 L311.18 214.93 L311.50 215.93 L311.83 216.93 L312.16 217.92 L312.49 218.92 L312.82 219.92 L313.15 220.92 L313.49 221.92 L313.82 222.91 L314.15 223.91 L314.49 224.91 L314.82 225.91 L315.16 226.90 L315.49 227.90 L315.83 228.90 L316.17 229.89 L316.51 230.89 L316.85 231.89 L317.20 232.88 L317.54 233.88 L317.88 234.88 L318.23 235.87 L318.58 236.87 L318.93 237.86 L319.28 238.86 L319.63 239.86 L319.98 240.85 L320.34 241.85 L320.69 242.84 L321.05 243.84 L321.41 244.83 L321.78 245.82 L322.14 246.82 L322.51 247.81 L322.88 248.81 L323.25 249.80 L323.62 250.79 L324.00 251.79 L324.38 252.78 L324.76 253.77 L325.14 254.77 L325.53 255.76 L325.92 256.75 L326.31 257.74 L326.71 258.73 L327.11 259.72 L327.51 260.72 L327.92 261.71 L328.33 262.70 L328.74 263.69 L329.16 264.67 L329.59 265.66 L330.02 266.65 L330.45 267.64 L330.89 268.63 L331.33 269.62 L331.78 270.60 L332.24 271.59 L332.70 272.57 L333.17 273.56 L333.64 274.54 L334.13 275.53 L334.62 276.51 L335.12 277.49 L335.63 278.47 L336.15 279.45 L336.68 280.43 L337.22 281.41 L337.77 282.39 L338.34 283.36 L338.92 284.34 L339.52 285.31 L340.13 286.28 L340.76 287.25 L341.42 288.21 L342.09 289.17 L342.80 290.13 L343.53 291.09 L344.30 292.04 L345.11 292.98 L345.96 293.92 L346.88 294.85 L347.86 295.76 L348.94 296.66 L350.13 297.54 L351.50 298.38 L353.12 299.15 L355.12 299.76 L357.12 300.00 L359.12 299.85 L361.12 299.33 L363.12 298.43 L365.12 297.16 L366.69 295.90 L367.94 294.74 L369.02 293.63 L369.99 292.54 L370.88 291.47 L371.71 290.41 L372.49 289.35 L373.23 288.30 L373.94 287.26 L374.62 286.22 L375.27 285.19 L375.90 284.15 L376.51 283.12 L377.11 282.10 L377.68 281.07 L378.25 280.05 L378.79 279.02 L379.33 278.00 L379.85 276.98 L380.37 275.96 L380.87 274.94 L381.37 273.92 L381.86 272.91 L382.33 271.89 L382.81 270.88 L383.27 269.86 L383.73 268.85 L384.18 267.83 L384.62 266.82 L385.06 265.81 L385.50 264.80 L385.93 263.79 L386.35 262.78 L386.77 261.77 L387.19 260.75 L387.60 259.75 L388.00 258.74 L388.41 257.73 L388.81 256.72 L389.20 255.71 L389.60 254.70 L389.99 253.69 L390.37 252.69 L390.76 251.68 L391.14 250.67 L391.52 249.66 L391.89 248.66 L392.26 247.65 L392.64 246.64 L393.00 245.64 L393.37 244.63 L393.73 243.63 L394.10 242.62 L394.46 241.62 L394.82 240.61 L395.17 239.61 L395.53 238.60 L395.88 237.60 L396.23 236.59 L396.58 235.59 L396.93 234.58 L397.28 233.58 L397.62 232.58 L397.97 231.57 L398.31 230.57 L398.65 229.57 L398.99 228.56 L399.33 227.56 L399.67 226.56 L400.01 225.55 L400.35 224.55 L400.68 223.55 L401.02 222.55 L401.35 221.54 L401.68 220.54 L402.02 219.54 L402.35 218.54 L402.68 217.54 L403.01 216.53 L403.34 215.53 L403.67 214.53 L404.00 213.53 L404.32 212.53 L404.65 211.53 L404.98 210.53 L405.31 209.52 L405.63 208.52 L405.96 207.52 L406.29 206.52 L406.61 205.52 L406.94 204.52 L407.26 203.52 L407.59 202.52 L407.91 201.52 L408.24 200.52 L408.56 199.52 L408.89 198.52 L409.21 197.52 L409.54 196.52 L409.86 195.52 L410.19 194.52 L410.51 193.52 L410.84 192.52 L411.17 191.52 L411.49 190.52 L411.82 189.52 L412.14 188.53 L412.47 187.53 L412.80 186.53 L413.13 185.53 L413.45 184.53 L413.78 183.53 L414.11 182.53 L414.44 181.54 L414.77 180.54 L415.10 179.54 L415.44 178.54 L415.77 177.54 L416.10 176.55 L416.44 175.55 L416.77 174.55 L417.11 173.55 L417.44 172.56 L417.78 171.56 L418.12 170.56 L418.46 169.57 L418.80 168.57 L419.14 167.57 L419.48 166.58 L419.83 165.58 L420.17 164.58 L420.52 163.59 L420.87 162.59 L421.22 161.60 L421.57 160.60 L421.92 159.61 L422.28 158.61 L422.63 157.62 L422.99 156.62 L423.35 155.63 L423.71 154.63 L424.07 153.64 L424.44 152.64 L424.81 151.65 L425.18 150.66 L425.55 149.66 L425.93 148.67 L426.30 147.68 L426.68 146.68 L427.07 145.69 L427.45 144.70 L427.84 143.71 L428.23 142.71 L428.63 141.72 L429.03 140.73 L429.43 139.74 L429.83 138.75 L430.24 137.76 L430.65 136.77 L431.07 135.78 L431.49 134.79 L431.92 133.80 L432.35 132.81 L432.79 131.82 L433.23 130.84 L433.68 129.85 L434.13 128.86 L434.59 127.88 L435.05 126.89 L435.53 125.91 L436.01 124.92 L436.49 123.94 L436.99 122.96 L437.50 121.98 L438.01 121.00 L438.54 120.02 L439.07 119.04 L439.62 118.06 L440.18 117.08 L440.75 116.11 L441.34 115.14 L441.95 114.17 L442.57 113.20 L443.22 112.23 L443.88 111.27 L444.57 110.31 L445.29 109.35 L446.04 108.40 L446.83 107.45 L447.67 106.51 L448.55 105.58 L449.50 104.65 L450.53 103.75 L451.67 102.86 L452.95 102.00 L454.44 101.19 L456.28 100.48 L458.28 100.07 L460.28 100.03 L462.28 100.38 L464.28 101.10 L466.28 102.19 L468.10 103.52 L469.48 104.72 L470.63 105.85 L471.64 106.95 L472.57 108.03 L473.42 109.09 L474.23 110.15 L474.99 111.20 L475.71 112.25 L476.40 113.29 L477.07 114.32 L477.71 115.36 L478.33 116.39 L478.93 117.42 L479.51 118.44 L480.08 119.47 L480.64 120.49 L481.18 121.52 L481.71 122.54 L482.23 123.56 L482.74 124.58 L483.24 125.59 L483.73 126.61 L484.21 127.63 L484.68 128.64 L485.15 129.66 L485.61 130.67 L486.07 131.69 L486.51 132.70 L486.96 133.71 L487.39 134.72 L487.83 135.73 L488.25 136.75 L488.67 137.76 L489.09 138.77 L489.50 139.78 L489.91 140.79 L490.32 141.80 L490.72 142.80 L491.12 143.81 L491.51 144.82 L491.90 145.83 L492.29 146.84 L492.68 147.84 L493.06 148.85 L493.44 149.86 L493.82 150.87 L494.19 151.87 L494.56 152.88 L494.93 153.88 L495.30 154.89 L495.66 155.90 L496.03 156.90 L496.39 157.91 L496.75 158.91 L497.11 159.92 L497.46 160.92 L497.81 161.93 L498.17 162.93 L498.52 163.94 L498.87 164.94 L499.21 165.94 L499.56 166.95 L499.91 167.95 L500.25 168.96 L500.59 169.96 L500.93 170.96 L501.27 171.97 L501.61 172.97 L501.95 173.97 L502.29 174.97 L502.62 175.98 L502.96 176.98 L503.29 177.98 L503.63 178.98 L503.96 179.99 L504.29 180.99 L504.62 181.99 L504.95 182.99 L505.28 183.99 L505.61 185.00 L505.94 186.00 L506.27 187.00 L506.60 188.00 L506.93 189.00 L507.25 190.00 L507.58 191.00 L507.91 192.00 L508.23 193.00 L508.56 194.01 L508.89 195.01 L509.21 196.01 L509.54 197.01 L509.86 198.01 L510.19 199.01 L510.51 200.01 L510.84 201.01 L511.16 202.01 L511.49 203.01 L511.81 204.01 L512.14 205.01 L512.46 206.01 L512.79 207.01 L513.11 208.00 L513.44 209.00 L513.77 210.00 L514.09 211.00 L514.42 212.00 L514.75 213.00 L515.07 214.00 L515.40 215.00 L515.73 216.00 L516.06 216.99 L516.39 217.99 L516.72 218.99 L517.05 219.99 L517.38 220.99 L517.71 221.98 L518.05 222.98 L518.38 223.98 L518.71 224.98 L519.05 225.97 L519.38 226.97 L519.72 227.97 L520.06 228.97 L520.40 229.96 L520.74 230.96 L521.08 231.96 L521.42 232.95 L521.77 233.95 L522.11 234.94 L522.46 235.94 L522.80 236.94 L523.15 237.93 L523.50 238.93 L523.86 239.92 L524.21 240.92 L524.56 241.91 L524.92 242.91 L525.28 243.90 L525.64 244.90 L526.00 245.89 L526.37 246.89 L526.74 247.88 L527.10 248.87 L527.48 249.87 L527.85 250.86 L528.23 251.85 L528.61 252.85 L528.99 253.84 L529.37 254.83 L529.76 255.83 L530.15 256.82 L530.54 257.81 L530.94 258.80 L531.34 259.79 L531.74 260.78 L532.15 261.77 L532.56 262.76 L532.98 263.75 L533.40 264.74 L533.82 265.73 L534.25 266.72 L534.68 267.71 L535.12 268.70 L535.57 269.68 L536.02 270.67 L536.47 271.66 L536.93 272.64 L537.40 273.63 L537.88 274.61 L538.36 275.59 L538.86 276.58 L539.36 277.56 L539.87 278.54 L540.39 279.52 L540.92 280.50 L541.46 281.48 L542.01 282.45 L542.58 283.43 L543.16 284.40 L543.76 285.37 L544.38 286.34 L545.01 287.31 L545.66 288.28 L546.34 289.24 L547.05 290.20 L547.79 291.15 L548.56 292.10 L549.37 293.05 L550.23 293.98 L551.15 294.91 L552.14 295.83 L553.22 296.72 L554.42 297.60 L555.80 298.43 L557.45 299.20 L559.45 299.79 L561.45 300.00 L563.45 299.83 L565.45 299.29 L567.45 298.36 L569.45 297.07 L570.99 295.82 L572.23 294.66 L573.30 293.55 L574.26 292.46 L575.14 291.39 L575.97 290.33 L576.75 289.28 L577.49 288.23 L578.19 287.19 L578.87 286.15 L579.52 285.11 L580.15 284.08 L580.76 283.05 L581.35 282.02 L581.93 281.00 L582.49 279.97 L583.04 278.95 L583.57 277.93 L584.10 276.91 L584.61 275.89 L585.11 274.87 L585.61 273.85 L586.09 272.84 L586.57 271.82 L587.04 270.80 L587.51 269.79 L587.96 268.78 L588.41 267.76 L588.86 266.75 L589.30 265.74 L589.73 264.73 L590.16 263.72 L590.58 262.70 L591.00 261.69 L591.42 260.68 L591.83 259.67 L592.24 258.66 L592.64 257.66 L593.04 256.65 L593.43 255.64 L593.83 254.63 L594.22 253.62 L594.60 252.61 L594.99 251.61 L595.37 250.60 L595.75 249.59 L596.12 248.59 L596.49 247.58 L596.87 246.57 L597.23 245.57 L597.60 244.56 L597.96 243.56 L598.33 242.55 L598.69 241.55 L599.04 240.54 L599.40 239.54 L599.76 238.53 L600.11 237.53 L600.46 236.52 L600.81 235.52 L601.16 234.51 L601.50 233.51 L601.85 232.51 L602.19 231.50 L602.54 230.50 L602.88 229.50 L603.22 228.49 L603.56 227.49 L603.90 226.49 L604.24 225.48 L604.57 224.48 L604.91 223.48 L605.24 222.48 L605.58 221.47 L605.91 220.47 L606.24 219.47 L606.57 218.47 L606.91 217.46 L607.24 216.46 L607.57 215.46 L607.89 214.46 L608.22 213.46 L608.55 212.46 L608.88 211.46 L609.21 210.45 L609.53 209.45 L609.86 208.45 L610.19 207.45 L610.51 206.45 L610.84 205.45 L611.16 204.45 L611.49 203.45 L611.81 202.45 L612.14 201.45 L612.46 200.45 L612.79 199.45 L613.11 198.45 L613.44 197.45 L613.76 196.45 L614.09 195.45 L614.42 194.45 L614.74 193.45 L615.07 192.45 L615.39 191.45 L615.72 190.45 L616.04 189.45 L616.37 188.45 L616.70 187.46 L617.03 186.46 L617.35 185.46 L617.68 184.46 L618.01 183.46 L618.34 182.46 L618.67 181.46 L619.00 180.47 L619.33 179.47 L619.66 178.47 L620.00 177.47 L620.33 176.48 L620.66 175.48 L621.00 174.48 L621.33 173.48 L621.67 172.49 L622.01 171.49 L622.35 170.49 L622.69 169.50 L623.03 168.50 L623.37 167.50 L623.71 166.51 L624.05 165.51 L624.40 164.51 L624.75 163.52 L625.10 162.52 L625.45 161.53 L625.80 160.53 L626.15 159.54 L626.50 158.54 L626.86 157.54 L627.22 156.55 L627.58 155.56 L627.94 154.56 L628.30 153.57 L628.67 152.57 L629.04 151.58 L629.41 150.58 L629.78 149.59 L630.16 148.60 L630.53 147.60 L630.91 146.61 L631.30 145.62 L631.68 144.63 L632.07 143.63 L632.46 142.64 L632.86 141.65 L633.26 140.66 L633.66 139.67 L634.06 138.68 L634.47 137.69 L634.89 136.70 L635.31 135.71 L635.73 134.72 L636.15 133.73 L636.59 132.74 L637.02 131.75 L637.46 130.77 L637.91 129.78 L638.36 128.79 L638.82 127.81 L639.29 126.82 L639.76 125.84 L640.24 124.85 L640.73 123.87 L641.23 122.89 L641.74 121.91 L642.25 120.93 L642.78 119.95 L643.31 118.97 L643.86 117.99 L644.42 117.02 L645.00 116.04 L645.59 115.07 L646.19 114.10 L646.82 113.13 L647.47 112.16 L648.13 111.20 L648.83 110.24 L649.55 109.28 " style="fill:none;stroke:#000000;stroke-width:1;" /></g></svg>