<?xml version="1.0" standalone="no"?><!DOCTYPE svg PUBLIC "-//W3C//DTD SVG 1.1//EN" "http://www.w3.org/Graphics/SVG/1.1/DTD/svg11.dtd"><svg xmlns="http://www.w3.org/2000/svg" viewBox="0 0 650 400" version="1.1"><clipPath id="box"><rect x="0" y="0" width="650" height="400" style="fill:none;stroke:none;" /></clipPath><g clip-path="url(#box)"><rect x="0.00" y="0.00" width="650.00" height="400.00" style="fill:#FFFFFF;stroke:none;" /><path d="M0.00 400.00 L650.00 400.00 M0.00 320.00 L650.00 320.00 M0.00 240.00 L650.00 240.00 M0.00 159.00 L650.00 159.00 M0.00 79.00 L650.00 79.00 M0.00 0.00 L650.00 0.00 M0.00 0.00 L0.00 400.00 M41.00 0.00 L41.00 400.00 M82.00 0.00 L82.00 400.00 M124.00 0.00 L124.00 400.00 M165.00 0.00 L165.00 400.00 M207.00 0.00 L207.00 400.00 M248.00 0.00 L248.00 400.00 M289.00 0.00 L289.00 400.00 M331.00 0.00 L331.00 400.00 M372.00 0.00 L372.00 400.00 M414.00 0.00 L414.00 400.00 M455.00 0.00 L455.00 400.00 M496.00 0.00 L496.00 400.00 M538.00 0.00 L538.00 400.00 M579.00 0.00 L579.00 400.00 M621.00 0.00 L621.00 400.00 " style="fill:none;stroke:#D0D0D0;stroke-width:1;" /><path d="M0.00 0.00 L0.00 400.00 " style="fill:none;stroke:#000000;stroke-width:1;" /><path d="M-6.50 400.00 L6.50 400.00 M-6.50 320.00 L6.50 320.00 M-6.50 240.00 L6.50 240.00 M-6.50 160.00 L6.50 160.00 M-6.50 80.00 L6.50 80.00 M-6.50 0.00 L6.50 0.00 " style="fill:none;stroke:#000000;stroke-width:1;" /><path d="M0.00 400.00 L650.00 400.00 " style="fill:none;stroke:#000000;stroke-width:1;" /><path d="M0.00 393.50 L0.00 406.50 M41.40 393.50 L41.40 406.50 M82.80 393.50 L82.80 406.50 M124.20 393.50 L124.20 406.50 M165.61 393.50 L165.61 406.50 M207.01 393.50 L207.01 406.50 M248.41 393.50 L248.41 406.50 M289.81 393.50 L289.81 406.50 M331.21 393.50 L331.21 406.50 M372.61 393.50 L372.61 406.50 M414.01 393.50 L414.01 406.50 M455.41 393.50 L455.41 406.50 M496.82 393.50 L496.82 406.50 M538.22 393.50 L538.22 406.50 M579.62 393.50 L579.62 406.50 M621.02 393.50 L621.02 406.50 " style="fill:none;stroke:#000000;stroke-width:1;" /><path d="M-10.00 200.00 L-0.25 400.00 L0.75 399.99 L2.75 399.93 L4.75 399.79 L6.75 399.57 L8.75 399.29 L10.75 398.92 L12.75 398.48 L14.75 397.97 L16.75 397.39 L18.75 396.73 L20.75 395.99 L22.75 395.19 L24.75 394.31 L26.75 393.36 L28.75 392.33 L30.70 391.26 L32.53 390.20 L34.25 389.15 L35.88 388.10 L37.44 387.06 L38.93 386.02 L40.37 384.98 L41.75 383.95 L43.09 382.92 L44.39 381.89 L45.65 380.86 L46.88 379.83 L48.08 378.81 L49.25 377.79 L50.39 376.76 L51.51 375.74 L52.60 374.72 L53.68 373.70 L54.73 372.69 L55.76 371.67 L56.78 370.65 L57.78 369.64 L58.77 368.62 L59.74 367.61 L60.69 366.59 L61.63 365.58 L62.56 364.56 L63.48 363.55 L64.38 362.54 L65.28 361.53 L66.16 360.51 L67.03 359.50 L67.90 358.49 L68.75 357.48 L69.59 356.47 L70.43 355.46 L71.25 354.45 L72.07 353.44 L72.88 352.43 L73.69 351.42 L74.48 350.41 L75.27 349.40 L76.05 348.39 L76.83 347.39 L77.60 346.38 L78.36 345.37 L79.12 344.36 L79.87 343.35 L80.61 342.35 L81.35 341.34 L82.08 340.33 L82.81 339.33 L83.54 338.32 L84.26 337.31 L84.97 336.31 L85.68 335.30 L86.38 334.29 L87.09 333.29 L87.78 332.28 L88.47 331.28 L89.16 330.27 L89.85 329.26 L90.53 328.26 L91.20 327.25 L91.87 326.25 L92.54 325.24 L93.21 324.24 L93.87 323.23 L94.53 322.23 L95.19 321.22 L95.84 320.22 L96.49 319.21 L97.13 318.21 L97.78 317.20 L98.42 316.20 L99.05 315.19 L99.69 314.19 L100.32 313.19 L100.95 312.18 L101.57 311.18 L102.20 310.17 L102.82 309.17 L103.44 308.17 L104.06 307.16 L104.67 306.16 L105.28 305.15 L105.89 304.15 L106.50 303.15 L107.10 302.14 L107.71 301.14 L108.31 300.14 L108.91 299.13 L109.50 298.13 L110.10 297.13 L110.69 296.12 L111.28 295.12 L111.87 294.12 L112.46 293.11 L113.04 292.11 L113.63 291.11 L114.21 290.10 L114.79 289.10 L115.37 288.10 L115.95 287.10 L116.52 286.09 L117.10 285.09 L117.67 284.09 L118.24 283.09 L118.81 282.08 L119.38 281.08 L119.94 280.08 L120.51 279.08 L121.07 278.07 L121.64 277.07 L122.20 276.07 L122.76 275.07 L123.32 274.06 L123.88 273.06 L124.43 272.06 L124.99 271.06 L125.54 270.06 L126.09 269.05 L126.65 268.05 L127.20 267.05 L127.75 266.05 L128.30 265.05 L128.84 264.04 L129.39 263.04 L129.94 262.04 L130.48 261.04 L131.03 260.04 L131.57 259.04 L132.11 258.03 L132.65 257.03 L133.19 256.03 L133.73 255.03 L134.27 254.03 L134.81 253.03 L135.35 252.03 L135.88 251.02 L136.42 250.02 L136.95 249.02 L137.49 248.02 L138.02 247.02 L138.55 246.02 L139.08 245.02 L139.62 244.02 L140.15 243.01 L140.68 242.01 L141.21 241.01 L141.74 240.01 L142.26 239.01 L142.79 238.01 L143.32 237.01 L143.85 236.01 L144.37 235.01 L144.90 234.01 L145.42 233.00 L145.95 232.00 L146.47 231.00 L147.00 230.00 L147.52 229.00 L148.04 228.00 L148.57 227.00 L149.09 226.00 L149.61 225.00 L150.13 224.00 L150.65 223.00 L151.18 222.00 L151.70 221.00 L152.22 220.00 L152.74 218.99 L153.26 217.99 L153.78 216.99 L154.30 215.99 L154.82 214.99 L155.34 213.99 L155.85 212.99 L156.37 211.99 L156.89 210.99 L157.41 209.99 L157.93 208.99 L158.45 207.99 L158.96 206.99 L159.48 205.99 L160.00 204.99 L160.52 203.99 L161.03 202.99 L161.55 201.99 L162.07 200.99 L162.59 199.99 L163.11 198.99 L163.62 197.99 L164.14 196.99 L164.66 195.99 L165.18 194.99 L165.69 193.99 L166.21 192.99 L166.73 191.99 L167.25 190.99 L167.76 189.99 L168.28 188.99 L168.80 187.99 L169.32 186.99 L169.84 185.99 L170.36 184.99 L170.88 183.99 L171.39 182.99 L171.91 181.99 L172.43 180.99 L172.95 179.99 L173.47 179.00 L173.99 178.00 L174.51 177.00 L175.03 176.00 L175.56 175.00 L176.08 174.00 L176.60 173.00 L177.12 172.00 L177.64 171.00 L178.17 170.00 L178.69 169.00 L179.21 168.00 L179.74 167.00 L180.26 166.00 L180.79 165.01 L181.31 164.01 L181.84 163.01 L182.36 162.01 L182.89 161.01 L183.42 160.01 L183.95 159.01 L184.47 158.01 L185.00 157.01 L185.53 156.01 L186.06 155.02 L186.59 154.02 L187.13 153.02 L187.66 152.02 L188.19 151.02 L188.72 150.02 L189.26 149.02 L189.79 148.02 L190.33 147.03 L190.86 146.03 L191.40 145.03 L191.94 144.03 L192.48 143.03 L193.02 142.03 L193.56 141.03 L194.10 140.04 L194.64 139.04 L195.18 138.04 L195.73 137.04 L196.27 136.04 L196.82 135.04 L197.37 134.05 L197.91 133.05 L198.46 132.05 L199.01 131.05 L199.56 130.05 L200.11 129.06 L200.67 128.06 L201.22 127.06 L201.78 126.06 L202.33 125.06 L202.89 124.07 L203.45 123.07 L204.01 122.07 L204.57 121.07 L205.13 120.08 L205.70 119.08 L206.26 118.08 L206.83 117.08 L207.40 116.09 L207.97 115.09 L208.54 114.09 L209.11 113.09 L209.68 112.10 L210.26 111.10 L210.84 110.10 L211.41 109.10 L211.99 108.11 L212.58 107.11 L213.16 106.11 L213.74 105.12 L214.33 104.12 L214.92 103.12 L215.51 102.13 L216.10 101.13 L216.70 100.13 L217.29 99.13 L217.89 98.14 L218.49 97.14 L219.10 96.15 L219.70 95.15 L220.31 94.15 L220.92 93.16 L221.53 92.16 L222.14 91.16 L222.76 90.17 L223.37 89.17 L223.99 88.18 L224.62 87.18 L225.24 86.18 L225.87 85.19 L226.50 84.19 L227.13 83.20 L227.77 82.20 L228.41 81.20 L229.05 80.21 L229.70 79.21 L230.34 78.22 L230.99 77.22 L231.65 76.23 L232.31 75.23 L232.97 74.24 L233.63 73.24 L234.30 72.25 L234.97 71.25 L235.64 70.26 L236.32 69.27 L237.00 68.27 L237.69 67.28 L238.38 66.28 L239.07 65.29 L239.77 64.29 L240.47 63.30 L241.18 62.31 L241.89 61.31 L242.61 60.32 L243.33 59.33 L244.05 58.33 L244.78 57.34 L245.52 56.35 L246.26 55.36 L247.01 54.36 L247.76 53.37 L248.52 52.38 L249.28 51.39 L250.05 50.39 L250.83 49.40 L251.61 48.41 L252.40 47.42 L253.20 46.43 L254.00 45.44 L254.81 44.45 L255.63 43.46 L256.46 42.47 L257.30 41.48 L258.14 40.49 L258.99 39.50 L259.86 38.51 L260.73 37.52 L261.61 36.53 L262.50 35.55 L263.41 34.56 L264.32 33.57 L265.25 32.58 L266.19 31.60 L267.14 30.61 L268.11 29.63 L269.09 28.64 L270.08 27.66 L271.10 26.67 L272.12 25.69 L273.17 24.71 L274.24 23.73 L275.32 22.75 L276.43 21.77 L277.56 20.79 L278.71 19.81 L279.89 18.83 L281.09 17.86 L282.33 16.88 L283.60 15.91 L284.91 14.94 L286.25 13.97 L287.64 13.00 L289.07 12.04 L290.56 11.08 L292.10 10.12 L293.71 9.16 L295.40 8.21 L297.18 7.27 L299.06 6.33 L301.06 5.40 L303.06 4.54 L305.06 3.76 L307.06 3.05 L309.06 2.42 L311.06 1.85 L313.06 1.37 L315.06 0.95 L317.06 0.61 L319.06 0.35 L321.06 0.16 L323.06 0.04 L325.06 0.00 L327.06 0.03 L329.06 0.14 L331.06 0.32 L333.06 0.58 L335.06 0.91 L337.06 1.32 L339.06 1.80 L341.06 2.35 L343.06 2.98 L345.06 3.68 L347.06 4.46 L349.06 5.31 L351.06 6.23 L353.06 7.22 L355.06 8.28 L356.94 9.35 L358.70 10.41 L360.37 11.46 L361.95 12.50 L363.47 13.54 L364.93 14.58 L366.34 15.62 L367.69 16.65 L369.01 17.68 L370.29 18.71 L371.53 19.73 L372.74 20.76 L373.92 21.78 L375.07 22.80 L376.20 23.82 L377.31 24.85 L378.39 25.86 L379.45 26.88 L380.49 27.90 L381.52 28.92 L382.52 29.93 L383.52 30.95 L384.49 31.97 L385.45 32.98 L386.40 33.99 L387.34 35.01 L388.26 36.02 L389.17 37.03 L390.06 38.05 L390.95 39.06 L391.83 40.07 L392.70 41.08 L393.55 42.09 L394.40 43.10 L395.24 44.11 L396.07 45.12 L396.89 46.13 L397.71 47.14 L398.51 48.15 L399.31 49.16 L400.10 50.17 L400.89 51.18 L401.67 52.19 L402.44 53.19 L403.20 54.20 L403.96 55.21 L404.71 56.22 L405.46 57.23 L406.20 58.23 L406.94 59.24 L407.67 60.25 L408.40 61.25 L409.12 62.26 L409.83 63.27 L410.54 64.27 L411.25 65.28 L411.95 66.29 L412.65 67.29 L413.35 68.30 L414.04 69.30 L414.72 70.31 L415.40 71.32 L416.08 72.32 L416.76 73.33 L417.43 74.33 L418.09 75.34 L418.76 76.34 L419.42 77.35 L420.07 78.35 L420.73 79.36 L421.38 80.36 L422.02 81.37 L422.67 82.37 L423.31 83.38 L423.95 84.38 L424.58 85.38 L425.22 86.39 L425.85 87.39 L426.47 88.40 L427.10 89.40 L427.72 90.41 L428.34 91.41 L428.96 92.41 L429.57 93.42 L430.19 94.42 L430.80 95.42 L431.41 96.43 L432.01 97.43 L432.62 98.44 L433.22 99.44 L433.82 100.44 L434.41 101.45 L435.01 102.45 L435.60 103.45 L436.20 104.46 L436.79 105.46 L437.37 106.46 L437.96 107.46 L438.55 108.47 L439.13 109.47 L439.71 110.47 L440.29 111.48 L440.87 112.48 L441.44 113.48 L442.02 114.48 L442.59 115.49 L443.16 116.49 L443.73 117.49 L444.30 118.49 L444.87 119.50 L445.44 120.50 L446.00 121.50 L446.56 122.50 L447.13 123.51 L447.69 124.51 L448.25 125.51 L448.80 126.51 L449.36 127.51 L449.92 128.52 L450.47 129.52 L451.03 130.52 L451.58 131.52 L452.13 132.53 L452.68 133.53 L453.23 134.53 L453.78 135.53 L454.32 136.53 L454.87 137.53 L455.42 138.54 L455.96 139.54 L456.50 140.54 L457.05 141.54 L457.59 142.54 L458.13 143.54 L458.67 144.55 L459.21 145.55 L459.74 146.55 L460.28 147.55 L460.82 148.55 L461.36 149.55 L461.89 150.55 L462.42 151.56 L462.96 152.56 L463.49 153.56 L464.02 154.56 L464.56 155.56 L465.09 156.56 L465.62 157.56 L466.15 158.56 L466.68 159.57 L467.21 160.57 L467.73 161.57 L468.26 162.57 L468.79 163.57 L469.31 164.57 L469.84 165.57 L470.37 166.57 L470.89 167.57 L471.42 168.57 L471.94 169.57 L472.46 170.58 L472.99 171.58 L473.51 172.58 L474.03 173.58 L474.56 174.58 L475.08 175.58 L475.60 176.58 L476.12 177.58 L476.64 178.58 L477.16 179.58 L477.68 180.58 L478.20 181.58 L478.72 182.58 L479.24 183.58 L479.76 184.58 L480.28 185.58 L480.80 186.58 L481.32 187.58 L481.84 188.58 L482.35 189.58 L482.87 190.59 L483.39 191.59 L483.91 192.59 L484.43 193.59 L484.95 194.59 L485.46 195.59 L485.98 196.59 L486.50 197.59 L487.02 198.59 L487.53 199.59 L488.05 200.59 L488.57 201.59 L489.09 202.59 L489.60 203.59 L490.12 204.59 L490.64 205.59 L491.16 206.59 L491.67 207.59 L492.19 208.59 L492.71 209.59 L493.23 210.59 L493.75 211.58 L494.26 212.58 L494.78 213.58 L495.30 214.58 L495.82 215.58 L496.34 216.58 L496.86 217.58 L497.38 218.58 L497.90 219.58 L498.42 220.58 L498.94 221.58 L499.46 222.58 L499.98 223.58 L500.50 224.58 L501.02 225.58 L501.54 226.58 L502.06 227.58 L502.59 228.58 L503.11 229.58 L503.63 230.58 L504.16 231.57 L504.68 232.57 L505.20 233.57 L505.73 234.57 L506.25 235.57 L506.78 236.57 L507.31 237.57 L507.83 238.57 L508.36 239.57 L508.89 240.57 L509.42 241.56 L509.94 242.56 L510.47 243.56 L511.00 244.56 L511.53 245.56 L512.07 246.56 L512.60 247.56 L513.13 248.56 L513.66 249.56 L514.20 250.55 L514.73 251.55 L515.27 252.55 L515.80 253.55 L516.34 254.55 L516.88 255.55 L517.42 256.55 L517.95 257.54 L518.49 258.54 L519.03 259.54 L519.58 260.54 L520.12 261.54 L520.66 262.54 L521.21 263.53 L521.75 264.53 L522.30 265.53 L522.85 266.53 L523.39 267.53 L523.94 268.53 L524.49 269.52 L525.05 270.52 L525.60 271.52 L526.15 272.52 L526.71 273.51 L527.26 274.51 L527.82 275.51 L528.38 276.51 L528.94 277.51 L529.50 278.50 L530.06 279.50 L530.62 280.50 L531.19 281.50 L531.75 282.49 L532.32 283.49 L532.89 284.49 L533.46 285.49 L534.03 286.48 L534.60 287.48 L535.18 288.48 L535.76 289.48 L536.33 290.47 L536.91 291.47 L537.49 292.47 L538.08 293.46 L538.66 294.46 L539.25 295.46 L539.84 296.46 L540.43 297.45 L541.02 298.45 L541.61 299.45 L542.21 300.44 L542.80 301.44 L543.40 302.44 L544.00 303.43 L544.61 304.43 L545.21 305.43 L545.82 306.42 L546.43 307.42 L547.04 308.41 L547.66 309.41 L548.28 310.41 L548.90 311.40 L549.52 312.40 L550.14 313.39 L550.77 314.39 L551.40 315.39 L552.03 316.38 L552.67 317.38 L553.30 318.37 L553.94 319.37 L554.59 320.36 L555.23 321.36 L555.88 322.35 L556.54 323.35 L557.19 324.35 L557.85 325.34 L558.51 326.33 L559.18 327.33 L559.85 328.32 L560.52 329.32 L561.20 330.31 L561.88 331.31 L562.56 332.30 L563.25 333.30 L563.94 334.29 L564.64 335.28 L565.34 336.28 L566.04 337.27 L566.75 338.27 L567.47 339.26 L568.19 340.25 L568.91 341.25 L569.64 342.24 L570.37 343.23 L571.11 344.22 L571.85 345.22 L572.60 346.21 L573.36 347.20 L574.12 348.19 L574.89 349.19 L575.66 350.18 L576.44 351.17 L577.23 352.16 L578.02 353.15 L578.82 354.14 L579.63 355.13 L580.45 356.12 L581.27 357.11 L582.11 358.10 L582.95 359.09 L583.80 360.08 L584.65 361.07 L585.52 362.06 L586.40 363.05 L587.29 364.04 L588.19 365.02 L589.10 366.01 L590.02 367.00 L590.95 367.98 L591.90 368.97 L592.86 369.96 L593.84 370.94 L594.83 371.93 L595.83 372.91 L596.85 373.89 L597.89 374.88 L598.95 375.86 L600.02 376.84 L601.12 377.82 L602.24 378.80 L603.38 379.78 L604.55 380.75 L605.74 381.73 L606.97 382.70 L608.22 383.68 L609.51 384.65 L610.84 385.62 L612.21 386.59 L613.62 387.55 L615.09 388.52 L616.61 389.48 L618.19 390.43 L619.84 391.39 L621.58 392.33 L623.41 393.27 L625.36 394.21 L627.36 395.10 L629.36 395.91 L631.36 396.65 L633.36 397.32 L635.36 397.91 L637.36 398.43 L639.36 398.88 L641.36 399.25 L643.36 399.55 L645.36 399.77 L647.36 399.92 L649.36 399.99 " style="fill:none;stroke:#000000;stroke-width:1;" /></g></svg>